<?xml version="1.0" encoding="UTF-8"?>
<!DOCTYPE svg PUBLIC "-//W3C//DTD SVG 1.1//EN" "http://www.w3.org/Graphics/SVG/1.1/DTD/svg11.dtd">
<!-- Creator: CorelDRAW -->
<svg xmlns="http://www.w3.org/2000/svg" xml:space="preserve" width="11.6929in" height="11.6929in" version="1.1" style="shape-rendering:geometricPrecision; text-rendering:geometricPrecision; image-rendering:optimizeQuality; fill-rule:evenodd; clip-rule:evenodd"
viewBox="0 0 11692.91 11692.91"
 xmlns:xlink="http://www.w3.org/1999/xlink"
 xmlns:xodm="http://www.corel.com/coreldraw/odm/2003">
 <defs>
  <style type="text/css">
   <![CDATA[
    .fil0 {fill:#252525}
   ]]>
  </style>
 </defs>
 <g id="Layer_x0020_1">
  <metadata id="CorelCorpID_0Corel-Layer"/>
  <path class="fil0" d="M3365.57 5903.16l85.31 196.94 410.93 -174.19 3.88 1223.95 -621.7 1 -6.5 254.28 5222.43 5.51 -3.21 -252.13 -616.65 -11.81 -7.8 -1941.09 719.21 337.93 110.3 -203.73c-1552.08,-773.05 -3071.26,-1603.47 -4628.63,-2370.26l-73.04 197.66 814.5 450.01 1 1538.15c-459.27,263.3 -940.43,503.7 -1410.02,747.79zm4208.68 -861.7l-2.41 2107.58 -1617.39 -1.49 -12.57 -2565.61 -908.35 431.01 1.53 -1257.32c835.81,420.13 1692.41,922.11 2539.18,1285.83zm-4541.26 3668.86l5498.94 17.6 168.29 -166.98 -226.92 -91.48 -5315.56 0.22 -157.58 150.28 32.83 90.37zm6724.15 -662.75l-74.99 -237.86 -6758.91 -0.35 -981.06 5.12 -6.8 227.63 733.81 25.62 7087.95 -20.16zm-5633.43 -2256.49l0.85 1351.65 645.22 5.58 3.72 -1688.12 -649.8 330.89zm909.5 -479.44l0.5 1836.18 641.27 1.59 8.7 -2161.44 -650.46 323.67z"/>
 </g>
</svg>
